<svg width="24" height="24" viewBox="0 0 24 24" fill="none" xmlns="http://www.w3.org/2000/svg">
<g clip-path="url(#clip0_3_42)">
<path d="M9.54902 20.75C10.4885 20.75 11.25 19.9884 11.25 19.049C11.25 18.1096 10.4885 17.348 9.54902 17.348C8.60959 17.348 7.84802 18.1096 7.84802 19.049C7.84802 19.9884 8.60959 20.75 9.54902 20.75Z" stroke="#292929" stroke-width="1.1" stroke-linecap="round" stroke-linejoin="round"/>
<path d="M16.96 20.75C17.8995 20.75 18.661 19.9884 18.661 19.049C18.661 18.1096 17.8995 17.348 16.96 17.348C16.0206 17.348 15.259 18.1096 15.259 19.049C15.259 19.9884 16.0206 20.75 16.96 20.75Z" stroke="#292929" stroke-width="1.1" stroke-linecap="round" stroke-linejoin="round"/>
<path d="M5.606 5.555L7.616 11.919C7.925 12.897 8.079 13.386 8.376 13.748C8.636 14.068 8.975 14.315 9.358 14.468C9.793 14.641 10.305 14.641 11.331 14.641H15.186C16.212 14.641 16.724 14.641 17.158 14.468C17.542 14.315 17.88 14.068 18.141 13.748C18.437 13.386 18.591 12.897 18.901 11.919L19.31 10.623L19.55 9.857L19.881 8.807C19.9991 8.4325 20.0274 8.03544 19.9634 7.648C19.8995 7.26055 19.7452 6.89361 19.513 6.57691C19.2809 6.26021 18.9774 6.00266 18.6271 5.82511C18.2768 5.64757 17.8897 5.55503 17.497 5.555H5.606ZM5.606 5.555L5.595 5.518C5.55277 5.37656 5.50608 5.23649 5.455 5.098C5.25255 4.58554 4.90923 4.14082 4.46473 3.81523C4.02022 3.48963 3.49266 3.29645 2.943 3.258C2.84 3.25 2.727 3.25 2.5 3.25" stroke="#292929" stroke-width="1.1" stroke-linecap="round" stroke-linejoin="round"/>
</g>
<defs>
<clipPath id="clip0_3_42">
<rect width="24" height="24" fill="white"/>
</clipPath>
</defs>
</svg>
