<svg width="52" height="52" viewBox="0 0 52 52" fill="none" xmlns="http://www.w3.org/2000/svg">
<rect width="52" height="52" rx="26" fill="#F48643"/>
<path d="M39.1611 30.5421L32.518 27.5651C32.217 27.4361 31.8886 27.3843 31.5625 27.4142C31.2364 27.4442 30.9229 27.555 30.6505 27.7367C30.6229 27.7545 30.5966 27.7742 30.5717 27.7957L27.0997 30.7489C27.0637 30.7685 27.0236 30.7795 26.9826 30.781C26.9416 30.7824 26.9008 30.7743 26.8634 30.7573C24.6317 29.6801 22.3198 27.3823 21.2384 25.1815C21.2204 25.1447 21.2111 25.1043 21.2111 25.0634C21.2111 25.0224 21.2204 24.982 21.2384 24.9453L24.2014 21.4296C24.2227 21.4037 24.2424 21.3764 24.2605 21.3481C24.4396 21.0746 24.5478 20.7608 24.5753 20.435C24.6028 20.1092 24.5487 19.7817 24.418 19.482L21.462 12.8501C21.2942 12.4586 21.0039 12.1321 20.6347 11.9197C20.2655 11.7072 19.8374 11.6202 19.4145 11.6717C17.5769 11.9133 15.8901 12.8157 14.6693 14.2104C13.4486 15.605 12.7774 17.3965 12.7813 19.25C12.7813 30.2609 21.7391 39.2187 32.75 39.2187C34.6034 39.2223 36.3947 38.551 37.7893 37.3303C39.1839 36.1096 40.0864 34.423 40.3283 32.5854C40.3797 32.1646 40.2938 31.7384 40.0836 31.3702C39.8733 31.0021 39.5497 30.7116 39.1611 30.5421ZM32.75 37.5312C22.67 37.5312 14.4688 29.33 14.4688 19.25C14.4641 17.807 14.9848 16.4118 15.9338 15.3248C16.8828 14.2379 18.1951 13.5337 19.6255 13.3437H19.6578C19.7145 13.3448 19.7695 13.3629 19.8157 13.3958C19.8619 13.4287 19.897 13.4747 19.9166 13.5279L22.8837 20.1528C22.9007 20.1896 22.9094 20.2297 22.9094 20.2702C22.9094 20.3107 22.9007 20.3508 22.8837 20.3876L19.9152 23.9117C19.8931 23.9369 19.8729 23.9637 19.8547 23.9918C19.6689 24.2754 19.5595 24.6022 19.5371 24.9404C19.5147 25.2787 19.58 25.617 19.7267 25.9226C20.9741 28.4764 23.5475 31.0301 26.1294 32.2775C26.4368 32.4234 26.7767 32.4871 27.1161 32.4624C27.4555 32.4378 27.7827 32.3256 28.0658 32.1368C28.0925 32.1186 28.1192 32.0989 28.1445 32.0778L31.6152 29.1246C31.6494 29.1062 31.6873 29.0954 31.7261 29.093C31.765 29.0906 31.8039 29.0966 31.8402 29.1106L38.4847 32.0876C38.539 32.1107 38.5846 32.1503 38.6151 32.2008C38.6457 32.2513 38.6596 32.3101 38.6548 32.3689C38.4659 33.7999 37.7623 35.1131 36.6756 36.0632C35.5889 37.0132 34.1934 37.5351 32.75 37.5312Z" fill="white"/>
</svg>
