<svg width="50" height="50" viewBox="0 0 50 50" fill="none" xmlns="http://www.w3.org/2000/svg">
<path d="M35.4167 41.6666C36.5217 41.6666 37.5815 41.2276 38.3629 40.4462C39.1443 39.6648 39.5833 38.605 39.5833 37.4999C39.5833 36.3948 39.1443 35.335 38.3629 34.5536C37.5815 33.7722 36.5217 33.3333 35.4167 33.3333C34.3116 33.3333 33.2518 33.7722 32.4704 34.5536C31.689 35.335 31.25 36.3948 31.25 37.4999C31.25 38.605 31.689 39.6648 32.4704 40.4462C33.2518 41.2276 34.3116 41.6666 35.4167 41.6666ZM14.5833 41.6666C15.6884 41.6666 16.7482 41.2276 17.5296 40.4462C18.311 39.6648 18.75 38.605 18.75 37.4999C18.75 36.3948 18.311 35.335 17.5296 34.5536C16.7482 33.7722 15.6884 33.3333 14.5833 33.3333C13.4783 33.3333 12.4184 33.7722 11.637 34.5536C10.8556 35.335 10.4167 36.3948 10.4167 37.4999C10.4167 38.605 10.8556 39.6648 11.637 40.4462C12.4184 41.2276 13.4783 41.6666 14.5833 41.6666Z" stroke="#4D953E" stroke-width="1.5" stroke-linecap="round" stroke-linejoin="round"/>
<path d="M39.5833 22.9166H45.8333M45.8333 22.9166V27.0833C45.8333 31.9937 45.8333 34.4478 44.3083 35.9749C43.2937 36.9895 41.8687 37.3291 39.5833 37.4416M45.8333 22.9166L43.175 17.9791C41.7375 15.3083 41.0187 13.9728 39.7833 13.2374C38.55 12.4999 37.0354 12.4999 34.0021 12.4999H30.2083M10.4167 37.4416C8.13124 37.3291 6.70832 36.9895 5.69166 35.9749C4.16666 34.4478 4.16666 31.9937 4.16666 27.0833V18.7499C4.16666 13.8395 4.16666 11.3833 5.69166 9.85825C7.21666 8.33325 9.67291 8.33325 14.5833 8.33325H21.4583C23.7854 8.33325 24.9479 8.33325 25.8896 8.6395C26.8275 8.9443 27.6801 9.46674 28.3774 10.1641C29.0748 10.8615 29.5973 11.714 29.9021 12.652C30.2083 13.5937 30.2083 14.7562 30.2083 17.0833C30.2083 19.6249 30.2083 20.8978 29.5125 21.7583C29.375 21.9277 29.2208 22.0819 29.05 22.2208C28.1896 22.9166 26.9187 22.9166 24.375 22.9166H16.6667M31.25 37.4999H18.75" stroke="#4D953E" stroke-width="1.5" stroke-linecap="round" stroke-linejoin="round"/>
<path d="M20.8333 27.0833C20.8333 27.0833 19.4333 25.925 18.2021 24.825C17.3333 24.125 16.6667 23.5271 16.6667 22.9271C16.6667 22.3958 17.1875 21.9021 18.0333 21.1271C19.2333 20.1292 20.8333 18.75 20.8333 18.75" stroke="#4D953E" stroke-width="1.5" stroke-linecap="round" stroke-linejoin="round"/>
</svg>
