<svg width="50" height="50" viewBox="0 0 50 50" fill="none" xmlns="http://www.w3.org/2000/svg">
<path d="M16.1458 28.8542L21.1458 33.8542M16.1458 28.8542C16.1458 28.8542 19.0979 21.4751 23.3 16.3542M16.1458 28.8542C5.27292 26.1355 15.0417 16.3542 23.3 16.3542M21.1458 33.8542C21.1458 33.8542 28.525 30.9022 33.6458 26.7001M21.1458 33.8542C23.8646 44.7251 33.6458 34.9584 33.6458 26.7001M23.3 16.3542C27.55 11.1751 34.5563 8.85425 41.1458 8.85425C41.1458 15.4438 38.825 22.448 33.6458 26.7001M30.1042 19.7022L31.5771 18.2292M11.4979 34.5334C9.51459 36.2022 8.85417 41.1563 8.85417 41.1563C8.85417 41.1563 13.7958 40.4938 15.4604 38.5063C16.3979 37.3938 16.3854 35.6855 15.3417 34.6522C14.8256 34.1671 14.1501 33.8873 13.4423 33.8654C12.7344 33.8436 12.0429 34.0811 11.4979 34.5334Z" stroke="#4D953E" stroke-width="1.5" stroke-linecap="round" stroke-linejoin="round"/>
</svg>
