<svg width="52" height="52" viewBox="0 0 52 52" fill="none" xmlns="http://www.w3.org/2000/svg">
<path d="M43.875 42.2858H8.125C5.8425 42.2858 4 40.4672 4 38.2144V13.7858C4 11.5329 5.8425 9.71436 8.125 9.71436H43.875C46.1575 9.71436 48 11.5329 48 13.7858V38.2144C48 40.4672 46.1575 42.2858 43.875 42.2858ZM8.125 12.4286C7.355 12.4286 6.75 13.0258 6.75 13.7858V38.2144C6.75 38.9744 7.355 39.5715 8.125 39.5715H43.875C44.645 39.5715 45.25 38.9744 45.25 38.2144V13.7858C45.25 13.0258 44.645 12.4286 43.875 12.4286H8.125Z" fill="#4D953E"/>
<path d="M26 31.32C24.075 31.32 22.315 30.56 20.995 29.1757L6.55747 14.03C6.03497 13.4871 6.06247 12.6185 6.61247 12.1028C7.16247 11.5871 8.04247 11.6143 8.56497 12.1571L23.0025 27.3028C24.57 28.9585 27.43 28.9585 28.9975 27.3028L43.435 12.1843C43.9575 11.6414 44.8375 11.6143 45.3875 12.13C45.9375 12.6457 45.965 13.5143 45.4425 14.0571L31.005 29.2028C29.685 30.5871 27.925 31.3471 26 31.3471V31.32Z" fill="#4D953E"/>
</svg>
