<svg width="50" height="50" viewBox="0 0 50 50" fill="none" xmlns="http://www.w3.org/2000/svg">
<path d="M23.9583 34.375H26.0417V22.9167H23.9583V34.375ZM25 19.9521C25.3639 19.9521 25.6687 19.8292 25.9146 19.5833C26.1604 19.3375 26.2826 19.0326 26.2812 18.6688C26.2799 18.3049 26.1569 18.0007 25.9125 17.7562C25.6681 17.5118 25.3639 17.3889 25 17.3875C24.6361 17.3861 24.3319 17.509 24.0875 17.7562C23.8431 18.0035 23.7201 18.3083 23.7188 18.6708C23.7174 19.0333 23.8403 19.3375 24.0875 19.5833C24.3347 19.8292 24.6389 19.9521 25 19.9521ZM25.0063 43.75C22.4132 43.75 19.9757 43.2583 17.6937 42.275C15.4118 41.2903 13.4264 39.9542 11.7375 38.2667C10.0486 36.5792 8.71181 34.5958 7.72708 32.3167C6.74236 30.0375 6.25 27.6007 6.25 25.0063C6.25 22.4118 6.74236 19.9743 7.72708 17.6937C8.71042 15.4118 10.0444 13.4264 11.7292 11.7375C13.4139 10.0486 15.3979 8.71181 17.6813 7.72708C19.9646 6.74236 22.4021 6.25 24.9937 6.25C27.5854 6.25 30.0229 6.74236 32.3062 7.72708C34.5882 8.71042 36.5736 10.0451 38.2625 11.7312C39.9514 13.4174 41.2882 15.4014 42.2729 17.6833C43.2576 19.9653 43.75 22.4021 43.75 24.9937C43.75 27.5854 43.2583 30.0229 42.275 32.3062C41.2917 34.5896 39.9556 36.575 38.2667 38.2625C36.5778 39.95 34.5944 41.2868 32.3167 42.2729C30.0389 43.259 27.6021 43.7514 25.0063 43.75ZM25 41.6667C29.6528 41.6667 33.5937 40.0521 36.8229 36.8229C40.0521 33.5937 41.6667 29.6528 41.6667 25C41.6667 20.3472 40.0521 16.4062 36.8229 13.1771C33.5937 9.94792 29.6528 8.33333 25 8.33333C20.3472 8.33333 16.4062 9.94792 13.1771 13.1771C9.94792 16.4062 8.33333 20.3472 8.33333 25C8.33333 29.6528 9.94792 33.5937 13.1771 36.8229C16.4062 40.0521 20.3472 41.6667 25 41.6667Z" fill="#4D953E"/>
</svg>
