<svg width="20" height="20" viewBox="0 0 20 20" fill="none" xmlns="http://www.w3.org/2000/svg">
<path d="M7.6325 4.76L7.29666 4.005C7.0775 3.51167 6.9675 3.265 6.80333 3.07583C6.59795 2.83893 6.32991 2.66476 6.03 2.57333C5.79083 2.5 5.52083 2.5 4.98 2.5C4.19 2.5 3.795 2.5 3.46333 2.65167C3.05418 2.85045 2.73748 3.19939 2.57916 3.62583C2.46 3.97 2.49416 4.32417 2.5625 5.03333C3.29027 12.575 7.42527 16.7097 14.9675 17.4375C15.6758 17.5058 16.03 17.54 16.375 17.4208C16.801 17.2625 17.1496 16.9462 17.3483 16.5375C17.5 16.205 17.5 15.81 17.5 15.02C17.5 14.4792 17.5 14.2092 17.4267 13.97C17.3352 13.6701 17.1611 13.402 16.9242 13.1967C16.7358 13.0325 16.4883 12.9233 15.995 12.7033L15.24 12.3683C14.705 12.1308 14.4383 12.0117 14.1667 11.9858C13.9066 11.9609 13.6442 11.9974 13.4008 12.0925C13.1467 12.1917 12.9225 12.3783 12.4725 12.7533C12.025 13.1258 11.8017 13.3117 11.5283 13.4117C11.266 13.5024 10.9862 13.5312 10.7108 13.4958C10.4225 13.4542 10.2025 13.3358 9.76083 13.1C8.39 12.3667 7.63333 11.6108 6.9 10.2392C6.66416 9.7975 6.54666 9.5775 6.50416 9.28917C6.46867 9.01416 6.49719 8.73467 6.5875 8.4725C6.6875 8.19833 6.87416 7.975 7.24666 7.5275C7.62166 7.0775 7.80916 6.85333 7.9075 6.59917C8.0025 6.35583 8.03916 6.09333 8.01416 5.83333C7.98916 5.5625 7.87 5.295 7.63166 4.76" stroke="white" stroke-width="1.1" stroke-linecap="round" stroke-linejoin="round"/>
</svg>
