<svg width="52" height="52" viewBox="0 0 52 52" fill="none" xmlns="http://www.w3.org/2000/svg">
<path d="M45.0105 32.5609L35.4148 28.2608C34.9801 28.0745 34.5057 27.9996 34.0347 28.0429C33.5637 28.0861 33.1109 28.2462 32.7173 28.5086C32.6775 28.5343 32.6395 28.5628 32.6036 28.5939L27.5884 32.8595C27.5364 32.8879 27.4785 32.9038 27.4192 32.9059C27.36 32.908 27.3011 32.8963 27.2472 32.8717C24.0236 31.3158 20.6842 27.9967 19.1222 24.8178C19.0962 24.7647 19.0826 24.7063 19.0826 24.6472C19.0826 24.588 19.0962 24.5297 19.1222 24.4766L23.402 19.3984C23.4328 19.3609 23.4613 19.3216 23.4873 19.2806C23.7461 18.8856 23.9024 18.4323 23.9421 17.9617C23.9818 17.4911 23.9037 17.018 23.7148 16.5852L19.4452 7.00578C19.2027 6.44029 18.7833 5.96871 18.2501 5.66179C17.7168 5.35487 17.0984 5.22918 16.4876 5.30359C13.8333 5.65255 11.3968 6.95609 9.63345 8.9706C7.87013 10.9851 6.90068 13.5728 6.90624 16.25C6.90624 32.1547 19.8453 45.0937 35.75 45.0937C38.4271 45.0989 41.0145 44.1293 43.0289 42.366C45.0434 40.6028 46.347 38.1665 46.6964 35.5123C46.7706 34.9044 46.6467 34.2888 46.3429 33.757C46.0391 33.2253 45.5718 32.8058 45.0105 32.5609ZM35.75 42.6562C21.19 42.6562 9.34374 30.81 9.34374 16.25C9.33695 14.1658 10.0892 12.1504 11.46 10.5804C12.8308 9.01038 14.7263 7.99314 16.7923 7.71874H16.8391C16.9209 7.72027 17.0004 7.7465 17.0671 7.79398C17.1338 7.84146 17.1846 7.90799 17.2128 7.98484L21.4987 17.5541C21.5232 17.6073 21.5358 17.6651 21.5358 17.7237C21.5358 17.7822 21.5232 17.8401 21.4987 17.8933L17.2108 22.9836C17.1789 23.0201 17.1497 23.0587 17.1234 23.0994C16.8551 23.509 16.6971 23.9809 16.6647 24.4695C16.6323 24.9581 16.7267 25.4468 16.9386 25.8883C18.7403 29.577 22.4575 33.2658 26.1869 35.0675C26.6309 35.2782 27.122 35.3703 27.6122 35.3347C28.1024 35.2991 28.575 35.1371 28.9839 34.8644C29.0225 34.838 29.0611 34.8095 29.0976 34.7791L34.1108 30.5134C34.1603 30.4868 34.215 30.4712 34.2711 30.4677C34.3272 30.4642 34.3833 30.4729 34.4358 30.4931L44.0334 34.7933C44.1118 34.8267 44.1777 34.8839 44.2219 34.9568C44.266 35.0297 44.286 35.1146 44.2792 35.1995C44.0063 37.2665 42.99 39.1635 41.4203 40.5358C39.8506 41.9081 37.835 42.6618 35.75 42.6562Z" fill="#4D953E"/>
</svg>
