<svg width="20" height="20" viewBox="0 0 20 20" fill="none" xmlns="http://www.w3.org/2000/svg">
<path d="M17.3848 3C17.8448 3 18.2291 3.15422 18.5371 3.46289C18.8451 3.77156 18.9993 4.15621 19 4.61621V15.3848C19 15.8448 18.8458 16.2294 18.5371 16.5381C18.2284 16.8468 17.8441 17.0007 17.3848 17H2.61621C2.15554 17 1.77089 16.8461 1.46289 16.5381C1.1549 16.2301 1.00067 15.8451 1 15.3838V4.61621C1 4.15554 1.15422 3.77089 1.46289 3.46289C1.77156 3.15489 2.1559 3.00067 2.61523 3H17.3848ZM10 10.1162L2 4.88477V15.3848C2 15.5641 2.05752 15.7118 2.17285 15.8271C2.28818 15.9425 2.43621 16 2.61621 16H17.3848C17.5641 16 17.7118 15.9425 17.8271 15.8271C17.9425 15.7118 18 15.5638 18 15.3838V4.88379L10 10.1162ZM10 9L17.6924 4H2.30762L10 9Z" fill="white"/>
<path d="M17.3848 3C17.8448 3 18.2291 3.15422 18.5371 3.46289C18.8451 3.77156 18.9993 4.15621 19 4.61621V15.3848C19 15.8448 18.8458 16.2294 18.5371 16.5381C18.2284 16.8468 17.8441 17.0007 17.3848 17H2.61621C2.15554 17 1.77089 16.8461 1.46289 16.5381C1.1549 16.2301 1.00067 15.8451 1 15.3838V4.61621C1 4.15554 1.15422 3.77089 1.46289 3.46289C1.77156 3.15489 2.1559 3.00067 2.61523 3H17.3848ZM10 10.1162L2 4.88477V15.3848C2 15.5641 2.05752 15.7118 2.17285 15.8271C2.28818 15.9425 2.43621 16 2.61621 16H17.3848C17.5641 16 17.7118 15.9425 17.8271 15.8271C17.9425 15.7118 18 15.5638 18 15.3838V4.88379L10 10.1162ZM10 9L17.6924 4H2.30762L10 9Z" stroke="white"/>
</svg>
