<svg width="50" height="50" viewBox="0 0 50 50" fill="none" xmlns="http://www.w3.org/2000/svg">
<path d="M35.4167 22.5104C35.4167 21.7896 35.4167 21.4292 35.5251 21.1084C35.8396 20.175 36.6709 19.8146 37.5042 19.4354C38.4376 19.0084 38.9042 18.7959 39.3688 18.7584C39.8938 18.7167 40.4209 18.8292 40.8709 19.0813C41.4667 19.4146 41.8834 20.0521 42.3084 20.5688C44.273 22.9563 45.2563 24.15 45.6146 25.4646C45.9063 26.5271 45.9063 27.6396 45.6146 28.7C45.0917 30.6209 43.4355 32.2292 42.2084 33.7209C41.5813 34.4813 41.2667 34.8625 40.8709 35.0854C40.4132 35.3393 39.8904 35.4517 39.3688 35.4084C38.9042 35.3709 38.4376 35.1584 37.5021 34.7313C36.6688 34.3521 35.8396 33.9917 35.5251 33.0584C35.4167 32.7375 35.4167 32.3771 35.4167 31.6563V22.5104ZM14.5834 22.5104C14.5834 21.6021 14.5584 20.7875 13.8251 20.15C13.5584 19.9188 13.2042 19.7584 12.498 19.4354C11.5626 19.0104 11.0959 18.7959 10.6313 18.7584C9.24172 18.6459 8.4938 19.5959 7.6938 20.5709C5.72714 22.9563 4.7438 24.15 4.38339 25.4667C4.0934 26.5257 4.0934 27.6431 4.38339 28.7021C4.90839 30.6209 6.56672 32.2313 7.79172 33.7209C8.56464 34.6584 9.30422 35.5146 10.6313 35.4084C11.0959 35.3709 11.5626 35.1584 12.498 34.7313C13.2063 34.4104 13.5584 34.2479 13.8251 34.0167C14.5584 33.3792 14.5834 32.5646 14.5834 31.6584V22.5104Z" stroke="#4D953E" stroke-width="1.5" stroke-linecap="round" stroke-linejoin="round"/>
<path d="M10.4167 18.75C10.4167 11.8458 16.9459 6.25 25.0001 6.25C33.0542 6.25 39.5834 11.8458 39.5834 18.75M39.5834 35.4167V37.0833C39.5834 40.7646 35.8542 43.75 31.2501 43.75H27.0834" stroke="#4D953E" stroke-width="1.5" stroke-linecap="round" stroke-linejoin="round"/>
</svg>
